<svg xmlns="http://www.w3.org/2000/svg" width="969" height="70" viewBox="0 0 969 70">
  <metadata><?xpacket begin="﻿" id="W5M0MpCehiHzreSzNTczkc9d"?>
<x:xmpmeta xmlns:x="adobe:ns:meta/" x:xmptk="Adobe XMP Core 5.6-c142 79.160924, 2017/07/13-01:06:39        ">
   <rdf:RDF xmlns:rdf="http://www.w3.org/1999/02/22-rdf-syntax-ns#">
      <rdf:Description rdf:about=""/>
   </rdf:RDF>
</x:xmpmeta>
                                                                                                    
                                                                                                    
                                                                                                    
                                                                                                    
                                                                                                    
                                                                                                    
                                                                                                    
                                                                                                    
                                                                                                    
                                                                                                    
                                                                                                    
                                                                                                    
                                                                                                    
                                                                                                    
                                                                                                    
                                                                                                    
                                                                                                    
                                                                                                    
                                                                                                    
                                                                                                    
                           
<?xpacket end="w"?></metadata>
<defs>
    <style>
      .cls-1 {
        fill: #404040;
        fill-rule: evenodd;
      }
    </style>
  </defs>
  <path id="R_A_Y_M_O_N_D_H_U_Y_N_H" data-name="R A Y M O N D   H U Y N H" class="cls-1" d="M20.264,47.69L35.971,69.24H57.329L38.844,45.966c8.237-2.586,13.313-9.673,13.313-22.22C51.774,7.847,40.951,1.43,26.968,1.43h-27.1V69.24H17.2V47.69h3.065Zm6.992-14.749H17.2V17.425H27.255C38.078,17.425,38.078,32.941,27.255,32.941Zm106.976,36.3L110,1.43H94.388L70.731,69.24H89.12l4.214-13.6h18.1l4.406,13.6h18.389ZM107.318,40.411H97.165l4.981-19.826h0.479ZM167.842,69.24h17.144V42.518L208.738,1.43H188.625l-12.259,24.9L164.107,1.43H144.185l23.657,41.088V69.24ZM227.312,1.43V69.24h17.143V49.7l-1.149-13.7,0.479-.1,9.1,23.274h11.78l8.907-23.274,0.575,0.1-1.054,13.7L273,69.24h17.239V1.43H273.092L258.726,34.569,244.455,1.43H227.312Zm89.445,22.316V46.924c0,15.516,14.079,23.274,28.158,23.274s28.063-7.758,28.063-23.273V23.746C372.978,8.23,358.9.472,344.82,0.472S316.757,8.135,316.757,23.746ZM333.9,46.924V23.746c0-4.98,5.364-7.662,10.727-7.662,5.555,0,11.206,2.394,11.206,7.662V46.924c0,4.885-5.459,7.375-10.919,7.375S333.9,51.9,333.9,46.924ZM399.5,1.43V69.24h17.144v-27.1l-2.2-13.121,0.479-.1,5.938,13.6L436.181,69.24h17.336V1.43H436.469V32.174c0.1,0,1.82,11.685,1.915,11.685l-0.479.1-5.746-13.6L415.781,1.43H399.5Zm107.548,0h-25.38V69.24h25.38c13.6,0.1,26.339-6.7,26.339-22.316V24.129C533.386,8.326,520.647,1.43,507.047,1.43Zm0.575,51.719h-8.716V17.425h8.716c5.746,0,8.524,2.778,8.524,7.183V45.775C516.146,50.18,513.464,53.149,507.622,53.149ZM612.1,69.24V43.667h19.538V69.24h17.24V1.43h-17.24V27.1H612.1V1.43H594.86V69.24H612.1Zm81.88-22.7V1.43H676.644v45.11c-0.1,31.8,54.018,31.8,54.114,0V1.43H713.422v45.11C713.327,57.459,693.98,57.459,693.98,46.541Zm78.625,22.7h17.143V42.518L813.5,1.43H793.388l-12.259,24.9-12.26-24.9H748.948l23.657,41.088V69.24ZM832.074,1.43V69.24h17.144v-27.1l-2.2-13.121,0.479-.1,5.938,13.6L868.756,69.24h17.336V1.43H869.044V32.174c0.1,0,1.819,11.685,1.915,11.685l-0.479.1-5.746-13.6L848.356,1.43H832.074ZM931.481,69.24V43.667h19.538V69.24h17.24V1.43h-17.24V27.1H931.481V1.43H914.242V69.24h17.239Z"/>
</svg>
